<?xml version="1.0" standalone="no"?>
<!DOCTYPE svg PUBLIC "-//W3C//DTD SVG 20010904//EN"
 "http://www.w3.org/TR/2001/REC-SVG-20010904/DTD/svg10.dtd">
<svg version="1.0" xmlns="http://www.w3.org/2000/svg"
 width="720.000000pt" height="368.000000pt" viewBox="0 0 720.000000 368.000000"
 preserveAspectRatio="xMidYMid meet">
<metadata>
Created by potrace 1.16, written by Peter Selinger 2001-2019
</metadata>
<g transform="translate(0.000000,368.000000) scale(0.100000,-0.100000)"
fill="#000000" stroke="none">
<path d="M0 2624 c0 -712 3 -1053 10 -1049 6 4 7 11 4 17 -5 7 -2 9 8 5 12 -4
15 1 13 26 -1 18 3 38 8 44 5 7 7 19 4 27 -3 8 2 17 11 21 13 5 14 8 3 14 -10
7 -10 11 1 22 7 8 14 27 15 43 0 16 5 31 10 35 4 3 9 12 11 19 1 7 4 20 6 30
1 9 6 25 11 35 4 10 5 21 1 24 -3 4 1 14 9 23 8 9 15 30 17 48 1 22 7 31 15
28 7 -3 12 -2 11 2 -4 14 26 111 32 107 4 -3 15 17 25 43 10 26 22 52 27 59 5
7 6 18 2 25 -4 7 -4 10 1 6 9 -9 37 40 30 52 -3 5 3 11 14 15 13 4 17 12 14
25 -4 14 0 20 12 20 12 0 16 6 12 20 -3 11 -2 20 2 20 10 0 31 62 24 73 -3 6
-2 7 4 4 5 -4 16 5 23 18 7 13 16 22 21 20 4 -3 12 9 18 26 6 17 15 28 20 24
6 -3 13 6 17 20 3 13 10 22 15 19 5 -3 9 4 9 15 0 26 37 64 52 55 7 -5 9 -2 6
8 -7 18 -1 29 32 51 13 9 18 17 10 17 -14 0 -4 13 48 62 12 12 22 29 22 37 0
13 2 13 9 2 6 -9 11 -10 15 -2 4 6 4 11 0 11 -4 0 3 8 14 19 12 10 18 21 14
25 -4 4 -2 7 3 6 22 -5 36 1 29 11 -5 8 1 10 18 7 16 -3 25 0 25 8 0 7 -4 11
-9 8 -4 -3 -5 2 -2 11 5 11 10 13 19 5 10 -8 19 -1 36 30 21 36 30 44 51 41 4
0 4 7 1 16 -4 11 -3 14 5 9 6 -4 22 4 34 16 13 13 28 22 34 20 6 -1 16 10 23
24 6 15 15 24 18 20 3 -3 23 12 45 33 21 22 38 34 38 28 0 -7 5 -4 11 6 6 9
15 14 21 11 7 -5 9 -1 5 9 -8 20 4 22 22 5 7 -7 12 -8 11 -3 -5 24 1 35 20 35
11 0 20 4 20 10 0 5 3 9 8 8 14 -3 42 14 36 23 -3 5 8 9 24 9 17 0 32 6 35 14
3 8 19 17 36 21 17 4 31 11 31 16 0 6 4 8 9 5 5 -3 29 5 54 18 30 15 50 19 56
13 6 -6 15 -4 26 7 9 9 25 16 36 16 11 0 17 5 14 10 -6 10 13 15 48 12 9 -1
17 3 17 9 0 5 -5 7 -12 3 -6 -4 -8 -3 -5 2 3 6 23 11 44 12 21 2 43 10 50 19
7 8 19 13 27 10 9 -4 15 -3 15 1 -3 18 2 26 9 14 6 -9 14 -7 30 8 12 12 36 22
52 23 17 1 30 8 30 15 0 7 4 11 9 8 5 -4 12 0 14 6 4 10 8 9 16 -2 8 -12 11
-12 11 -1 0 8 6 11 16 7 8 -3 13 -2 10 3 -3 5 9 15 27 22 17 7 37 14 42 17 6
2 3 -2 -5 -8 -12 -10 -12 -11 5 -5 11 4 26 8 33 8 6 0 12 7 13 16 0 10 2 12 6
4 6 -17 20 -16 27 2 5 13 -115 15 -1039 15 l-1045 0 0 -1056z"/>
<path d="M2108 3673 c7 -3 16 -2 19 1 4 3 -2 6 -13 5 -11 0 -14 -3 -6 -6z"/>
<path d="M2148 3673 c7 -3 16 -2 19 1 4 3 -2 6 -13 5 -11 0 -14 -3 -6 -6z"/>
<path d="M2940 3669 c30 -8 69 -14 140 -23 9 -1 21 -5 28 -10 6 -4 17 -4 22
-1 6 3 10 0 10 -8 0 -9 12 -13 40 -11 25 1 39 -2 37 -10 -1 -6 7 -10 18 -9 11
1 23 -4 27 -10 6 -9 8 -9 8 1 0 13 32 17 43 5 4 -3 18 -7 31 -8 21 0 23 2 13
14 -10 12 -9 13 11 2 12 -7 20 -17 16 -23 -5 -7 -2 -8 7 -2 19 12 42 11 51 -1
5 -6 8 -5 8 2 0 7 7 10 17 6 9 -4 14 -2 11 3 -4 5 10 9 30 9 21 0 44 5 53 13
17 13 49 7 49 -11 0 -5 8 -3 18 5 26 24 66 43 57 28 -6 -9 -3 -9 12 -1 11 6
23 7 27 4 3 -3 6 -2 6 4 0 5 14 9 30 8 17 -1 30 2 30 7 0 5 6 8 13 7 26 -3 47
1 47 11 0 7 -163 10 -472 9 -305 -1 -461 -4 -438 -10z"/>
<path d="M4555 3673 c11 -3 25 -9 32 -15 8 -6 19 -6 31 1 15 8 21 7 25 -4 4
-9 16 -12 37 -10 18 3 28 0 25 -5 -6 -9 23 -14 73 -12 12 1 22 -4 22 -10 0 -6
3 -8 7 -5 3 4 12 -1 20 -11 14 -16 14 -16 9 1 -3 9 -1 17 4 17 5 0 13 -8 19
-17 5 -10 11 -17 13 -15 9 9 90 -13 95 -25 3 -8 12 -12 21 -8 8 3 21 -3 29
-12 8 -10 12 -12 8 -5 -8 15 -7 15 45 -3 24 -9 90 -23 147 -31 56 -9 101 -20
98 -24 -3 -4 1 -7 8 -7 23 2 107 -25 102 -33 -3 -4 4 -10 15 -13 11 -3 20 -1
20 5 0 5 5 6 11 2 6 -3 34 -8 62 -10 27 -2 58 -11 67 -19 9 -8 20 -12 23 -8 9
9 87 -18 87 -30 0 -5 7 -6 16 -3 10 4 13 2 8 -6 -5 -8 -2 -9 9 -5 10 4 17 1
17 -5 0 -9 3 -9 11 -1 7 7 23 7 54 -2 24 -8 52 -11 63 -9 10 3 26 -2 36 -11
12 -12 16 -13 16 -3 0 11 2 11 9 0 4 -7 17 -15 27 -17 10 -2 20 -4 22 -5 1 -2
8 -3 15 -4 6 -1 11 -7 10 -13 -2 -8 11 -11 37 -9 22 2 40 0 40 -3 0 -4 35 -8
77 -9 58 -3 80 -7 87 -19 6 -11 10 -12 16 -3 5 8 11 7 23 -4 19 -19 31 -21 21
-3 -6 8 -3 8 9 -1 9 -8 21 -11 27 -7 7 4 14 -2 17 -14 5 -21 7 -21 24 -5 17
16 18 15 14 -5 -2 -11 2 -22 8 -23 34 -4 -149 -16 -293 -19 -133 -2 -149 -4
-85 -8 136 -10 494 15 658 46 50 9 23 -10 -83 -57 -125 -56 -213 -86 -335
-115 -55 -13 -92 -24 -83 -24 25 -1 113 18 187 40 35 10 73 18 85 18 16 -1 17
-2 4 -6 -10 -2 -18 -11 -18 -19 0 -8 -9 -14 -20 -14 -11 0 -20 -5 -20 -11 0
-5 -4 -7 -10 -4 -5 3 -10 0 -10 -8 0 -8 -12 -18 -27 -22 -29 -7 -126 -64 -131
-77 -2 -5 -8 -6 -13 -2 -5 3 -9 -2 -9 -10 0 -9 -5 -16 -11 -16 -5 0 -7 5 -3
12 5 8 2 9 -10 5 -10 -4 -20 -7 -22 -7 -3 0 -3 -4 0 -8 3 -5 -20 -9 -51 -10
-31 -1 -61 -7 -67 -13 -8 -9 -7 -10 3 -4 10 6 12 4 7 -4 -5 -7 -15 -10 -23 -7
-9 4 -22 -2 -30 -11 -8 -10 -12 -12 -8 -5 3 6 1 12 -4 12 -6 0 -11 -6 -11 -12
0 -9 -4 -8 -10 2 -6 10 -10 11 -10 3 0 -7 -9 -13 -21 -13 -12 0 -17 -4 -13
-11 4 -8 0 -8 -15 0 -11 7 -21 8 -21 3 0 -4 -8 -9 -17 -10 -41 -4 -63 -9 -69
-15 -4 -4 -13 -2 -21 4 -8 7 -13 8 -13 1 0 -12 -38 -4 -60 12 -12 9 -13 8 -3
-4 10 -13 4 -15 -40 -14 -29 0 -60 -4 -71 -9 -12 -6 -16 -5 -12 1 3 6 -8 10
-29 10 -19 0 -35 -4 -35 -9 0 -5 -8 -9 -17 -9 -13 0 -15 2 -5 8 7 5 -16 8 -53
6 -36 -1 -65 2 -65 6 0 9 -36 6 -64 -6 -14 -5 -17 -4 -11 5 4 7 -5 5 -21 -5
-15 -11 -25 -14 -21 -7 6 9 -2 12 -28 11 -20 -1 -40 3 -43 9 -4 5 -17 12 -30
16 -18 4 -21 3 -13 -7 9 -11 3 -13 -30 -10 -22 1 -47 8 -55 15 -11 9 -14 9
-14 -1 0 -10 -3 -10 -14 -1 -9 8 -16 8 -20 2 -4 -6 -21 -5 -46 4 -22 8 -40 10
-42 4 -2 -5 -15 -2 -30 6 -26 13 -29 12 -39 -6 -8 -16 -14 -18 -24 -9 -8 7
-15 7 -19 1 -3 -5 -22 -8 -42 -6 -23 1 -37 -2 -41 -12 -4 -10 -9 -11 -18 -3
-10 8 -15 8 -21 -1 -5 -8 -3 -9 6 -4 9 5 11 4 6 -4 -4 -6 -12 -9 -17 -6 -5 4
-9 0 -9 -7 0 -9 -3 -9 -10 2 -8 12 -10 12 -10 1 0 -11 -3 -11 -15 -1 -13 10
-15 9 -15 -9 0 -13 -4 -19 -11 -16 -17 11 -71 -16 -60 -29 7 -8 3 -12 -15 -14
-36 -3 -46 -11 -39 -32 5 -15 2 -17 -16 -13 -18 5 -21 3 -16 -10 5 -12 1 -17
-12 -17 -10 0 -22 -7 -25 -16 -3 -9 -13 -14 -21 -11 -8 4 -16 -2 -20 -14 -4
-10 -11 -19 -16 -19 -5 0 -9 -8 -7 -17 2 -12 -3 -18 -14 -17 -10 1 -15 -2 -12
-7 3 -5 1 -9 -4 -9 -6 0 -8 -10 -5 -22 3 -17 2 -19 -5 -9 -11 15 -42 8 -42 -9
0 -6 5 -8 12 -4 7 4 8 3 4 -5 -4 -6 -11 -9 -16 -6 -8 5 -25 -23 -22 -37 1 -5
-8 -8 -20 -8 -20 0 -20 -1 -5 -12 16 -12 14 -15 -13 -33 -16 -11 -30 -28 -30
-38 0 -24 -26 -32 -47 -16 -14 12 -16 12 -8 -1 14 -23 13 -49 -2 -43 -9 3 -13
-3 -13 -22 0 -15 -4 -24 -10 -20 -5 3 -10 -1 -10 -10 0 -9 4 -13 10 -10 6 3 7
-1 4 -9 -3 -9 -16 -16 -28 -16 -15 0 -17 -3 -8 -9 11 -7 11 -9 -2 -14 -9 -4
-16 -13 -16 -21 0 -8 -8 -20 -17 -25 -10 -6 -13 -11 -6 -11 7 0 10 -7 7 -15
-4 -8 -10 -13 -14 -10 -5 3 -11 1 -15 -5 -3 -5 -2 -10 2 -10 5 0 9 -11 9 -25
0 -14 -6 -25 -13 -25 -7 0 -10 -7 -6 -17 5 -12 3 -14 -8 -9 -8 4 -5 0 5 -8 11
-9 15 -16 9 -16 -12 0 -39 -58 -30 -66 3 -3 -4 -24 -16 -47 -15 -28 -17 -42
-9 -45 8 -2 9 -9 2 -21 -5 -10 -6 -21 -3 -25 3 -3 1 -6 -5 -6 -6 0 -9 -11 -6
-27 5 -24 3 -25 -12 -12 -17 13 -17 13 0 -12 15 -25 16 -28 1 -43 -18 -17 -11
-41 8 -29 7 4 6 0 -2 -10 -7 -9 -17 -15 -21 -12 -5 3 -12 0 -16 -6 -4 -7 -3
-9 3 -6 6 4 16 0 23 -8 7 -8 9 -15 5 -15 -4 0 -2 -6 4 -14 8 -10 9 -16 1 -21
-11 -7 -9 -49 3 -61 3 -4 2 -15 -4 -25 -5 -11 -7 -20 -4 -20 3 -1 9 -2 14 -3
6 0 16 -8 23 -16 11 -12 11 -12 -3 -2 -9 6 -19 9 -22 5 -12 -12 -7 -23 11 -23
14 0 15 -2 2 -10 -8 -5 -11 -10 -6 -10 5 0 3 -7 -4 -15 -11 -13 -10 -14 4 -9
12 5 18 -1 22 -24 4 -17 13 -33 21 -36 11 -5 12 -10 2 -28 -11 -21 -11 -22 4
-9 14 11 17 11 18 0 1 -8 1 -17 0 -22 0 -4 6 -7 15 -7 8 0 12 -4 9 -10 -3 -6
-1 -10 5 -10 6 0 8 -4 5 -10 -6 -9 -1 -11 38 -14 18 -1 36 -28 29 -45 -4 -10
-1 -13 10 -8 9 3 24 -1 35 -9 10 -9 13 -13 6 -10 -6 4 -15 1 -19 -5 -4 -8 -3
-9 4 -5 7 4 12 1 12 -6 0 -9 3 -9 8 -2 13 20 40 23 54 7 11 -14 10 -15 -12 -8
-14 4 -22 4 -18 0 4 -4 19 -9 33 -11 21 -2 25 1 21 14 -5 15 -5 15 6 1 7 -9
19 -14 27 -11 8 3 11 0 7 -6 -3 -5 1 -12 9 -16 9 -3 15 0 15 9 0 18 1 18 72 1
32 -7 55 -9 51 -4 -3 6 3 8 15 4 12 -4 23 -2 28 5 5 9 10 7 19 -5 12 -15 13
-15 19 1 6 14 9 15 15 4 7 -11 13 -10 34 3 21 14 27 15 38 3 17 -16 40 -11 33
8 -4 9 3 13 26 11 18 -1 38 4 45 11 8 7 18 13 24 13 5 0 15 8 21 17 10 16 11
16 6 1 -6 -21 16 -29 29 -11 14 18 75 26 75 10 1 -7 7 -1 14 12 8 15 16 20 20
12 5 -8 14 -6 32 5 13 9 24 12 24 6 0 -5 7 -13 16 -16 15 -6 15 -4 3 11 -12
15 -12 16 4 10 12 -4 17 -1 18 11 0 11 2 13 6 4 4 -10 9 -9 20 5 8 10 12 13 9
6 -8 -14 10 -27 19 -14 3 6 13 7 22 4 12 -5 14 -3 8 7 -5 9 -4 11 3 6 6 -4 23
1 37 10 23 15 30 13 26 -9 -1 -5 3 -5 9 -2 6 4 9 14 6 22 -4 9 -1 13 6 10 7
-2 12 -11 10 -18 -3 -10 1 -9 15 2 10 9 24 14 31 12 7 -3 12 -1 11 4 -3 19 2
23 20 13 15 -7 23 -6 35 6 9 9 16 11 16 4 0 -6 5 -8 12 -4 6 4 26 9 44 11 19
2 55 14 81 28 27 13 50 20 51 14 5 -13 22 -11 22 4 0 6 13 12 30 13 17 1 30
-3 30 -8 0 -5 15 0 34 11 36 23 51 27 41 11 -8 -13 11 -13 36 0 12 7 19 7 19
1 0 -5 12 -3 27 4 18 10 31 11 37 5 12 -12 29 -13 22 -1 -3 4 6 6 19 3 14 -2
25 -8 25 -14 0 -5 9 -4 21 2 15 8 24 8 34 0 9 -7 15 -8 19 -1 4 6 13 8 21 4 8
-3 15 0 15 7 0 10 3 10 15 0 12 -10 15 -10 15 1 1 9 5 8 15 -5 8 -11 15 -15
15 -9 0 13 18 12 39 -1 9 -6 12 -5 8 1 -4 7 12 10 46 9 41 -1 51 2 49 14 -3
11 2 9 18 -5 21 -19 21 -19 14 1 -7 17 -6 18 10 5 9 -8 29 -16 44 -17 17 -2
22 0 14 5 -11 7 -11 9 1 14 8 3 18 2 23 -3 5 -4 25 -11 44 -15 26 -4 31 -3 20
4 -9 7 -10 11 -3 11 6 0 14 -3 17 -8 2 -4 49 -7 104 -7 55 0 98 -3 97 -6 -2
-3 21 -5 51 -4 31 0 58 -3 61 -8 2 -4 14 -5 25 -1 12 3 18 2 15 -3 -4 -5 0
-10 8 -10 8 0 12 4 9 9 -3 4 2 5 10 2 9 -3 16 -10 16 -15 0 -5 3 -8 8 -8 20 3
32 -2 26 -13 -4 -6 -3 -8 4 -4 6 3 18 -1 26 -10 11 -11 16 -12 16 -3 0 10 3
10 12 1 7 -7 22 -12 33 -12 12 0 25 -3 29 -8 4 -4 11 -7 14 -8 19 -2 48 -19
56 -32 7 -12 10 -12 17 -1 7 11 9 10 9 -5 0 -12 5 -16 15 -12 9 3 18 -1 21 -8
3 -8 12 -17 20 -20 10 -4 12 -2 8 6 -5 7 -2 8 7 3 30 -17 48 -38 42 -49 -4 -6
1 -5 10 3 15 12 17 12 10 -4 -5 -15 -3 -17 11 -12 10 4 15 3 11 -3 -3 -6 1
-10 9 -10 14 0 16 128 16 1290 l0 1290 -1332 -1 c-733 -1 -1324 -4 -1313 -6z
m819 -901 c3 -5 -1 -9 -9 -9 -8 0 -12 4 -9 9 3 4 7 8 9 8 2 0 6 -4 9 -8z"/>
<path d="M2360 3532 c-25 -4 47 -7 160 -7 113 0 234 -3 270 -7 51 -5 58 -5 30
3 -42 12 -396 20 -460 11z"/>
<path d="M2235 3510 c-27 -7 -27 -8 -5 -8 14 0 39 4 55 8 27 7 27 8 5 8 -14 0
-38 -4 -55 -8z"/>
<path d="M4113 3513 c37 -2 96 -2 130 0 34 2 4 3 -68 3 -71 0 -99 -1 -62 -3z"/>
<path d="M2868 3503 c6 -2 18 -2 25 0 6 3 1 5 -13 5 -14 0 -19 -2 -12 -5z"/>
<path d="M3988 3503 c12 -2 30 -2 40 0 9 3 -1 5 -23 4 -22 0 -30 -2 -17 -4z"/>
<path d="M4343 3503 c15 -2 37 -2 50 0 12 2 0 4 -28 4 -27 0 -38 -2 -22 -4z"/>
<path d="M2072 3478 c-46 -11 -82 -22 -80 -24 3 -2 51 7 109 20 57 14 93 25
79 25 -14 -1 -62 -10 -108 -21z"/>
<path d="M2925 3491 c11 -4 36 -11 55 -15 24 -4 29 -3 15 3 -11 4 -36 11 -55
15 -24 4 -29 3 -15 -3z"/>
<path d="M3858 3484 c-27 -8 -48 -17 -48 -20 0 -4 8 -3 18 1 9 4 44 13 77 20
37 8 49 13 30 14 -16 0 -51 -7 -77 -15z"/>
<path d="M4530 3484 c52 -8 100 -12 105 -11 13 5 -139 27 -173 26 -15 -1 16
-7 68 -15z"/>
<path d="M4658 3463 c6 -2 18 -2 25 0 6 3 1 5 -13 5 -14 0 -19 -2 -12 -5z"/>
<path d="M3099 3435 c30 -14 70 -34 90 -46 22 -12 28 -14 16 -4 -25 21 -102
60 -135 69 -14 3 -1 -5 29 -19z"/>
<path d="M4708 3453 c6 -2 18 -2 25 0 6 3 1 5 -13 5 -14 0 -19 -2 -12 -5z"/>
<path d="M1940 3440 c-18 -12 -2 -12 25 0 13 6 15 9 5 9 -8 0 -22 -4 -30 -9z"/>
<path d="M4770 3441 c37 -12 109 -22 85 -12 -11 5 -40 11 -65 15 -30 4 -36 3
-20 -3z"/>
<path d="M1817 3398 c-43 -16 -77 -32 -75 -34 2 -2 44 12 93 31 50 19 83 34
75 34 -8 0 -50 -14 -93 -31z"/>
<path d="M3657 3390 c-26 -16 -47 -32 -47 -34 0 -3 23 9 50 26 44 27 57 38 47
38 -2 0 -24 -13 -50 -30z"/>
<path d="M4970 3394 c52 -13 100 -22 105 -20 11 3 -170 47 -188 45 -7 -1 31
-12 83 -25z"/>
<path d="M3234 3362 c8 -13 66 -56 66 -49 0 3 -17 17 -37 33 -20 15 -33 23
-29 16z"/>
<path d="M5098 3363 c7 -3 16 -2 19 1 4 3 -2 6 -13 5 -11 0 -14 -3 -6 -6z"/>
<path d="M1663 3334 c-29 -13 -53 -26 -53 -29 0 -5 110 42 119 50 10 11 -17 2
-66 -21z"/>
<path d="M5160 3346 c20 -8 51 -16 70 -19 19 -4 8 2 -25 13 -67 22 -100 26
-45 6z"/>
<path d="M3564 3318 l-29 -33 33 29 c30 28 37 36 29 36 -2 0 -16 -15 -33 -32z"/>
<path d="M5340 3294 c98 -31 191 -56 196 -52 4 5 -248 78 -262 77 -5 0 25 -12
66 -25z"/>
<path d="M1527 3266 c-31 -18 -60 -36 -65 -41 -9 -9 66 28 111 55 53 33 16 21
-46 -14z"/>
<path d="M3325 3270 c10 -11 20 -20 23 -20 3 0 -3 9 -13 20 -10 11 -20 20 -23
20 -3 0 3 -9 13 -20z"/>
<path d="M3474 3228 l-29 -33 33 29 c30 28 37 36 29 36 -2 0 -16 -15 -33 -32z"/>
<path d="M5590 3224 c25 -7 52 -13 60 -13 8 0 -5 7 -30 15 -25 7 -52 13 -60
13 -8 0 5 -7 30 -15z"/>
<path d="M1424 3204 c-18 -14 -18 -15 4 -4 12 6 22 13 22 15 0 8 -5 6 -26 -11z"/>
<path d="M2453 3203 c20 -2 54 -2 75 0 20 2 3 4 -38 4 -41 0 -58 -2 -37 -4z"/>
<path d="M5715 3195 c28 -7 59 -13 70 -13 11 0 -2 6 -30 13 -27 7 -59 13 -70
13 -11 0 3 -6 30 -13z"/>
<path d="M2378 3193 c7 -3 16 -2 19 1 4 3 -2 6 -13 5 -11 0 -14 -3 -6 -6z"/>
<path d="M2580 3193 c8 -3 34 -14 58 -24 23 -10 42 -16 42 -13 0 8 -83 44
-100 43 -13 -1 -13 -1 0 -6z"/>
<path d="M1363 3169 c-35 -22 -46 -37 -15 -20 22 13 58 40 52 41 -3 0 -20 -10
-37 -21z"/>
<path d="M2328 3183 c6 -2 18 -2 25 0 6 3 1 5 -13 5 -14 0 -19 -2 -12 -5z"/>
<path d="M3429 3173 c-13 -16 -12 -17 4 -4 9 7 17 15 17 17 0 8 -8 3 -21 -13z"/>
<path d="M2280 3170 c-8 -5 -10 -10 -5 -10 6 0 17 5 25 10 8 5 11 10 5 10 -5
0 -17 -5 -25 -10z"/>
<path d="M5845 3170 c40 -9 122 -13 114 -6 -2 2 -38 6 -79 9 -56 4 -65 3 -35
-3z"/>
<path d="M2230 3150 c-8 -5 -10 -10 -5 -10 6 0 17 5 25 10 8 5 11 10 5 10 -5
0 -17 -5 -25 -10z"/>
<path d="M2725 3110 c22 -25 48 -56 58 -70 17 -24 17 -24 0 8 -10 18 -35 49
-57 70 l-40 37 39 -45z"/>
<path d="M4593 3143 c31 -2 83 -2 115 0 31 2 5 3 -58 3 -63 0 -89 -1 -57 -3z"/>
<path d="M1250 3093 c-101 -72 -241 -187 -290 -239 -28 -29 -15 -21 32 22 42
39 121 104 175 145 55 41 113 84 129 96 54 41 20 23 -46 -24z"/>
<path d="M4498 3133 c6 -2 18 -2 25 0 6 3 1 5 -13 5 -14 0 -19 -2 -12 -5z"/>
<path d="M4793 3133 c9 -2 25 -2 35 0 9 3 1 5 -18 5 -19 0 -27 -2 -17 -5z"/>
<path d="M2156 3115 c-11 -8 -16 -15 -10 -15 5 0 18 7 28 15 11 8 16 15 10 15
-5 0 -18 -7 -28 -15z"/>
<path d="M4868 3123 c6 -2 18 -2 25 0 6 3 1 5 -13 5 -14 0 -19 -2 -12 -5z"/>
<path d="M4408 3104 c-39 -21 -35 -28 5 -8 37 19 44 24 31 24 -5 -1 -21 -8
-36 -16z"/>
<path d="M4928 3113 c6 -2 18 -2 25 0 6 3 1 5 -13 5 -14 0 -19 -2 -12 -5z"/>
<path d="M4995 3100 c17 -4 39 -8 50 -8 16 0 15 2 -5 8 -14 4 -36 8 -50 8 -22
0 -22 -1 5 -8z"/>
<path d="M2093 3079 c-35 -22 -46 -37 -15 -20 22 13 58 40 52 41 -3 0 -20 -10
-37 -21z"/>
<path d="M5078 3083 c6 -2 18 -2 25 0 6 3 1 5 -13 5 -14 0 -19 -2 -12 -5z"/>
<path d="M4313 3041 c-26 -21 -68 -60 -93 -87 -33 -35 -26 -31 25 17 39 35 84
75 100 87 17 12 27 22 23 22 -3 0 -28 -17 -55 -39z"/>
<path d="M5170 3064 c30 -7 75 -16 100 -18 25 -3 7 3 -40 14 -96 21 -145 25
-60 4z"/>
<path d="M1995 3013 c-27 -20 -95 -82 -150 -136 l-100 -100 100 95 c56 52 124
112 153 133 44 31 60 46 50 45 -2 0 -25 -17 -53 -37z"/>
<path d="M5380 3024 c36 -7 74 -13 85 -12 11 0 -9 6 -45 14 -36 7 -74 13 -85
12 -11 0 9 -6 45 -14z"/>
<path d="M2806 2997 c3 -10 9 -15 12 -12 3 3 0 11 -7 18 -10 9 -11 8 -5 -6z"/>
<path d="M5530 2999 c25 -4 61 -7 80 -7 29 1 26 2 -15 8 -69 11 -126 10 -65
-1z"/>
<path d="M6055 2988 c-44 -5 -154 -7 -245 -5 -134 3 -151 2 -90 -5 84 -11 376
-3 430 11 46 12 12 11 -95 -1z"/>
<path d="M2820 2965 c0 -5 5 -17 10 -25 5 -8 10 -10 10 -5 0 6 -5 17 -10 25
-5 8 -10 11 -10 5z"/>
<path d="M4159 2883 c-13 -16 -12 -17 4 -4 9 7 17 15 17 17 0 8 -8 3 -21 -13z"/>
<path d="M2852 2870 c0 -14 2 -19 5 -12 2 6 2 18 0 25 -3 6 -5 1 -5 -13z"/>
<path d="M4120 2830 c-12 -16 -19 -30 -16 -30 2 0 14 14 26 30 12 17 19 30 16
30 -2 0 -14 -13 -26 -30z"/>
<path d="M2862 2820 c0 -14 2 -19 5 -12 2 6 2 18 0 25 -3 6 -5 1 -5 -13z"/>
<path d="M5110 2826 c0 -2 8 -10 18 -17 15 -13 16 -12 3 4 -13 16 -21 21 -21
13z"/>
<path d="M4805 2810 c3 -5 8 -10 11 -10 2 0 4 5 4 10 0 6 -5 10 -11 10 -5 0
-7 -4 -4 -10z"/>
<path d="M819 2718 c-46 -51 -76 -87 -66 -79 22 18 161 171 154 171 -3 0 -42
-42 -88 -92z"/>
<path d="M2873 2750 c0 -25 2 -35 4 -22 2 12 2 32 0 45 -2 12 -4 2 -4 -23z"/>
<path d="M4056 2738 c-36 -58 -63 -107 -52 -97 12 11 95 149 90 149 -2 0 -19
-24 -38 -52z"/>
<path d="M1707 2728 c-47 -59 -94 -126 -76 -108 22 22 120 150 115 150 -3 0
-20 -19 -39 -42z"/>
<path d="M2883 2640 c0 -25 2 -35 4 -22 2 12 2 32 0 45 -2 12 -4 2 -4 -23z"/>
<path d="M701 2587 l-25 -32 32 29 c33 31 37 36 25 35 -5 0 -19 -14 -32 -32z"/>
<path d="M1585 2558 c-16 -24 -22 -38 -14 -31 15 12 53 73 46 73 -2 0 -17 -19
-32 -42z"/>
<path d="M3935 2530 c-14 -27 -23 -50 -20 -50 2 0 16 23 30 50 14 28 23 50 20
50 -2 0 -16 -22 -30 -50z"/>
<path d="M2873 2530 c0 -25 2 -35 4 -22 2 12 2 32 0 45 -2 12 -4 2 -4 -23z"/>
<path d="M654 2528 c-31 -36 -47 -58 -41 -58 3 0 20 18 37 40 34 43 36 55 4
18z"/>
<path d="M4325 2519 c-4 -6 -5 -12 -2 -15 2 -3 7 2 10 11 7 17 1 20 -8 4z"/>
<path d="M1540 2490 c-6 -11 -8 -20 -6 -20 3 0 10 9 16 20 6 11 8 20 6 20 -3
0 -10 -9 -16 -20z"/>
<path d="M2862 2455 c0 -16 2 -22 5 -12 2 9 2 23 0 30 -3 6 -5 -1 -5 -18z"/>
<path d="M589 2443 c-13 -16 -12 -17 4 -4 9 7 17 15 17 17 0 8 -8 3 -21 -13z"/>
<path d="M1510 2440 c-6 -11 -8 -20 -6 -20 3 0 10 9 16 20 6 11 8 20 6 20 -3
0 -10 -9 -16 -20z"/>
<path d="M3862 2384 c-18 -35 -32 -68 -32 -72 1 -4 17 24 36 62 19 37 34 70
32 72 -2 2 -18 -26 -36 -62z"/>
<path d="M550 2390 c-12 -16 -19 -30 -16 -30 2 0 14 14 26 30 12 17 19 30 16
30 -2 0 -14 -13 -26 -30z"/>
<path d="M2842 2368 c-6 -29 -14 -64 -17 -78 -3 -14 1 -9 9 10 15 39 31 120
23 120 -2 0 -9 -24 -15 -52z"/>
<path d="M1460 2354 c-18 -30 -31 -57 -28 -59 2 -2 18 23 36 56 18 32 31 59
28 59 -2 0 -19 -25 -36 -56z"/>
<path d="M450 2238 c-52 -85 -180 -330 -180 -345 0 -4 35 60 78 142 43 83 94
175 113 205 49 76 51 80 45 80 -3 0 -28 -37 -56 -82z"/>
<path d="M2173 2282 c-9 -15 -7 -21 8 -30 15 -10 19 -10 17 0 -2 8 5 12 17 10
16 -2 17 -1 5 7 -13 9 -13 11 3 11 15 0 22 -17 18 -42 0 -5 3 -8 8 -8 13 0 22
28 10 36 -6 4 -6 12 3 22 10 14 10 15 -1 5 -7 -6 -20 -9 -28 -6 -7 3 -23 -3
-35 -13 -20 -19 -21 -19 -14 4 9 27 5 28 -11 4z"/>
<path d="M3806 2265 c-9 -26 -7 -32 5 -12 6 10 9 21 6 23 -2 3 -7 -2 -11 -11z"/>
<path d="M2098 2263 c7 -3 16 -2 19 1 4 3 -2 6 -13 5 -11 0 -14 -3 -6 -6z"/>
<path d="M2112 2238 c-7 -7 -12 -18 -12 -25 0 -7 -5 -13 -11 -13 -5 0 -8 -4
-4 -9 3 -5 -2 -17 -11 -25 -16 -16 -8 -22 12 -8 12 7 29 51 26 64 -1 4 5 5 14
1 9 -3 12 -9 7 -12 -5 -3 -12 -14 -16 -24 -5 -12 4 -7 24 13 17 17 28 34 24
38 -4 4 -10 2 -12 -5 -2 -7 -11 -9 -19 -6 -7 3 -11 9 -8 14 8 13 0 11 -14 -3z"/>
<path d="M2782 2163 c-18 -48 -30 -88 -28 -90 2 -2 18 35 35 83 17 48 30 88
28 91 -2 2 -18 -36 -35 -84z"/>
<path d="M3786 2215 c-9 -26 -7 -32 5 -12 6 10 9 21 6 23 -2 3 -7 -2 -11 -11z"/>
<path d="M2238 2188 c2 -10 6 -18 7 -18 1 0 5 8 7 18 3 11 0 19 -7 19 -7 0
-10 -8 -7 -19z"/>
<path d="M2158 2189 c-10 -5 -18 -17 -18 -25 0 -10 -8 -14 -22 -12 -11 2 -23
-3 -26 -11 -3 -10 2 -11 19 -6 13 4 21 4 17 0 -11 -11 -59 -15 -52 -4 3 5 -2
9 -10 9 -9 0 -16 -5 -16 -11 0 -5 -5 -7 -11 -4 -6 4 -8 13 -5 21 8 21 0 17
-17 -10 -15 -22 -15 -24 1 -21 9 1 30 -4 46 -12 22 -12 26 -17 15 -24 -9 -6
-15 -4 -17 6 -2 8 -8 15 -13 15 -6 0 -8 -4 -5 -9 3 -5 -1 -12 -10 -15 -12 -5
-15 -2 -10 10 5 12 2 15 -11 9 -10 -4 -23 -8 -30 -8 -7 0 -10 -4 -7 -9 3 -5
13 -7 21 -6 9 2 18 -3 21 -11 3 -10 -2 -11 -18 -6 -17 5 -21 4 -17 -6 2 -8 9
-13 15 -12 5 1 13 -5 16 -13 4 -12 2 -15 -9 -10 -8 3 -15 1 -15 -4 0 -6 9 -10
19 -10 11 0 22 -4 26 -9 3 -6 -3 -8 -14 -6 -15 3 -18 0 -14 -12 4 -10 2 -14
-5 -9 -6 3 -13 2 -16 -3 -4 -5 -2 -12 4 -16 5 -3 10 -16 9 -28 -1 -20 -2 -20
-8 3 -5 17 -9 21 -15 12 -4 -6 -4 -12 1 -12 4 0 1 -5 -7 -10 -13 -8 -12 -10 3
-10 9 0 17 -6 17 -12 0 -9 4 -8 11 2 8 12 9 8 6 -15 -2 -16 -2 -24 0 -17 3 7
9 9 15 6 7 -4 8 -2 4 4 -4 8 0 12 11 13 15 0 15 2 -3 11 -22 10 -29 58 -9 53
6 -1 7 0 3 2 -15 8 -8 22 14 29 43 13 76 45 70 66 -4 17 -2 19 19 13 29 -9 34
-13 26 -21 -4 -4 -15 -1 -24 7 -16 13 -17 12 -5 -2 11 -14 8 -22 -18 -50 -19
-22 -26 -37 -20 -43 7 -7 14 -6 23 3 10 10 8 11 -8 5 -17 -6 -17 -3 5 18 14
14 28 23 33 21 4 -2 7 3 7 12 0 10 5 13 12 9 8 -5 9 2 5 22 -5 26 -3 30 16 30
26 -1 35 18 11 22 -10 3 -14 0 -10 -7 4 -6 2 -11 -3 -11 -6 0 -11 4 -11 10 0
5 -10 14 -22 20 -21 10 -21 10 -6 -3 16 -12 14 -14 -13 -14 -16 0 -25 3 -19 7
7 4 12 11 13 16 2 9 4 9 47 0 23 -5 25 -2 27 29 1 19 -2 35 -7 35 -11 0 -21
-30 -14 -42 4 -6 1 -8 -7 -6 -8 3 -12 12 -10 19 2 8 4 21 6 29 1 8 10 14 20
12 10 -2 14 1 10 7 -8 13 -15 13 -37 0z m-59 -164 c0 -5 -4 -3 -9 5 -9 13 -10
13 -11 0 -1 -8 -1 -18 0 -22 0 -4 -7 -4 -16 -1 -11 4 -14 3 -9 -5 5 -8 2 -10
-9 -6 -14 6 -14 8 0 24 14 15 14 18 1 23 -10 4 -13 1 -9 -9 3 -7 0 -14 -6 -14
-14 0 -14 27 0 36 6 3 16 1 22 -5 16 -16 27 -14 28 7 0 14 2 14 9 -3 5 -11 9
-24 9 -30z"/>
<path d="M1366 2165 c-9 -26 -7 -32 5 -12 6 10 9 21 6 23 -2 3 -7 -2 -11 -11z"/>
<path d="M3766 2165 c-9 -26 -7 -32 5 -12 6 10 9 21 6 23 -2 3 -7 -2 -11 -11z"/>
<path d="M1967 2133 c3 -7 6 -13 8 -13 2 0 5 6 8 13 3 8 -1 14 -8 14 -7 0 -11
-6 -8 -14z"/>
<path d="M2237 2115 c3 -8 9 -12 14 -9 12 7 11 11 -5 17 -10 4 -13 1 -9 -8z"/>
<path d="M3741 2099 c-6 -18 -9 -34 -7 -36 2 -2 9 10 15 28 6 18 9 34 7 36 -2
2 -9 -10 -15 -28z"/>
<path d="M1336 2095 c-9 -26 -7 -32 5 -12 6 10 9 21 6 23 -2 3 -7 -2 -11 -11z"/>
<path d="M1906 2078 c3 -5 10 -6 15 -3 13 9 11 12 -6 12 -8 0 -12 -4 -9 -9z"/>
<path d="M2727 2025 c-24 -50 -20 -58 4 -12 11 22 19 41 17 43 -3 2 -12 -12
-21 -31z"/>
<path d="M2199 2033 c-13 -16 -12 -17 4 -4 9 7 17 15 17 17 0 8 -8 3 -21 -13z"/>
<path d="M3696 1974 c-9 -26 -16 -52 -15 -58 0 -6 9 13 20 43 10 30 17 56 15
58 -2 2 -11 -17 -20 -43z"/>
<path d="M1900 2000 c-13 -8 -12 -10 3 -10 9 0 17 5 17 10 0 12 -1 12 -20 0z"/>
<path d="M1930 1995 c0 -8 4 -15 10 -15 5 0 7 7 4 15 -4 8 -8 15 -10 15 -2 0
-4 -7 -4 -15z"/>
<path d="M1970 1980 c0 -5 5 -10 10 -10 6 0 10 5 10 10 0 6 -4 10 -10 10 -5 0
-10 -4 -10 -10z"/>
<path d="M2647 1857 c-33 -62 -54 -107 -49 -102 14 14 115 205 111 210 -2 2
-30 -47 -62 -108z"/>
<path d="M1911 1929 c-13 -11 -21 -22 -17 -26 3 -3 14 4 25 16 14 16 21 18 24
9 4 -9 6 -9 6 -1 2 21 -13 22 -38 2z"/>
<path d="M2050 1926 c0 -2 7 -7 16 -10 8 -3 12 -2 9 4 -6 10 -25 14 -25 6z"/>
<path d="M2080 1900 c-8 -5 -12 -12 -9 -15 4 -3 12 1 19 10 14 17 11 19 -10 5z"/>
<path d="M2095 1880 c-3 -5 -1 -10 4 -10 6 0 11 5 11 10 0 6 -2 10 -4 10 -3 0
-8 -4 -11 -10z"/>
<path d="M256 1865 c-9 -26 -7 -32 5 -12 6 10 9 21 6 23 -2 3 -7 -2 -11 -11z"/>
<path d="M1916 1849 c-18 -17 -18 -18 3 -12 24 6 35 19 24 26 -5 2 -16 -4 -27
-14z"/>
<path d="M3642 1788 c-12 -48 -22 -93 -21 -100 0 -7 12 28 25 77 13 50 22 94
21 100 -2 5 -13 -30 -25 -77z"/>
<path d="M1879 1843 c-13 -16 -12 -17 4 -4 9 7 17 15 17 17 0 8 -8 3 -21 -13z"/>
<path d="M233 1813 c-3 -10 -12 -33 -19 -51 -26 -64 -83 -268 -100 -357 -28
-140 -25 -401 5 -523 13 -51 25 -91 28 -89 2 3 -3 31 -11 63 -9 33 -21 114
-28 181 -20 207 11 412 101 676 21 65 37 117 35 117 -3 0 -7 -8 -11 -17z"/>
<path d="M1216 1749 c-10 -33 -16 -63 -13 -65 2 -2 11 24 21 57 9 34 15 63 13
66 -2 2 -12 -24 -21 -58z"/>
<path d="M1926 1793 c-6 -14 -5 -15 5 -6 7 7 10 15 7 18 -3 3 -9 -2 -12 -12z"/>
<path d="M1815 1770 c-3 -5 1 -10 10 -10 9 0 13 5 10 10 -3 6 -8 10 -10 10 -2
0 -7 -4 -10 -10z"/>
<path d="M1853 1757 c-9 -14 6 -20 20 -8 8 6 23 8 32 4 13 -4 16 -3 11 5 -8
13 -55 12 -63 -1z"/>
<path d="M2570 1720 c-6 -11 -8 -20 -6 -20 3 0 10 9 16 20 6 11 8 20 6 20 -3
0 -10 -9 -16 -20z"/>
<path d="M1850 1716 c0 -8 4 -17 9 -20 5 -4 7 3 4 14 -6 23 -13 26 -13 6z"/>
<path d="M2540 1670 c-6 -11 -8 -20 -6 -20 3 0 10 9 16 20 6 11 8 20 6 20 -3
0 -10 -9 -16 -20z"/>
<path d="M1192 1650 c0 -14 2 -19 5 -12 2 6 2 18 0 25 -3 6 -5 1 -5 -13z"/>
<path d="M3612 1650 c0 -14 2 -19 5 -12 2 6 2 18 0 25 -3 6 -5 1 -5 -13z"/>
<path d="M2467 1557 c-31 -46 -95 -131 -142 -188 -47 -57 -63 -79 -34 -49 77
83 252 320 236 320 -2 0 -29 -38 -60 -83z"/>
<path d="M1176 1584 c-4 -20 -5 -38 -3 -40 3 -3 8 11 11 32 4 20 5 38 3 40 -3
3 -8 -11 -11 -32z"/>
<path d="M3602 1595 c0 -16 2 -22 5 -12 2 9 2 23 0 30 -3 6 -5 -1 -5 -18z"/>
<path d="M3592 1530 c0 -19 2 -27 5 -17 2 9 2 25 0 35 -3 9 -5 1 -5 -18z"/>
<path d="M1162 1505 c0 -16 2 -22 5 -12 2 9 2 23 0 30 -3 6 -5 -1 -5 -18z"/>
<path d="M3584 1365 c0 -71 1 -99 3 -62 2 37 2 96 0 130 -2 34 -3 4 -3 -68z"/>
<path d="M1152 1440 c0 -19 2 -27 5 -17 2 9 2 25 0 35 -3 9 -5 1 -5 -18z"/>
<path d="M1143 1350 c0 -25 2 -35 4 -22 2 12 2 32 0 45 -2 12 -4 2 -4 -23z"/>
<path d="M2790 1360 c0 -5 -16 -34 -36 -62 -33 -48 -33 -50 -5 -18 17 19 31
40 33 45 1 6 5 -35 8 -90 l6 -100 2 118 c1 64 0 117 -3 117 -3 0 -5 -4 -5 -10z"/>
<path d="M1133 1225 c0 -27 2 -38 4 -22 2 15 2 37 0 50 -2 12 -4 0 -4 -28z"/>
<path d="M2125 1153 c-62 -60 -79 -80 -40 -46 69 60 164 153 155 152 -3 0 -54
-48 -115 -106z"/>
<path d="M2699 1223 c-13 -16 -12 -17 4 -4 16 13 21 21 13 21 -2 0 -10 -8 -17
-17z"/>
<path d="M3592 1205 c0 -16 2 -22 5 -12 2 9 2 23 0 30 -3 6 -5 -1 -5 -18z"/>
<path d="M2654 1163 c-15 -20 -23 -33 -16 -29 13 8 56 66 49 66 -3 0 -17 -17
-33 -37z"/>
<path d="M6270 1170 l-55 -7 52 -1 c28 -1 55 3 58 8 3 6 5 9 3 8 -2 -1 -28 -4
-58 -8z"/>
<path d="M6340 1173 c0 -5 51 -6 112 -4 197 6 471 -26 676 -77 39 -10 72 -15
72 -11 0 17 -309 75 -473 88 -147 13 -387 15 -387 4z"/>
<path d="M3602 1145 c0 -11 4 -31 8 -45 6 -20 8 -21 8 -5 0 11 -4 31 -8 45 -6
20 -8 21 -8 5z"/>
<path d="M6138 1153 c12 -2 30 -2 40 0 9 3 -1 5 -23 4 -22 0 -30 -2 -17 -4z"/>
<path d="M5975 1135 c-80 -17 -39 -17 50 -1 39 8 57 14 40 14 -16 0 -57 -6
-90 -13z"/>
<path d="M1142 1105 c0 -16 2 -22 5 -12 2 9 2 23 0 30 -3 6 -5 -1 -5 -18z"/>
<path d="M2609 1103 c-13 -16 -12 -17 4 -4 9 7 17 15 17 17 0 8 -8 3 -21 -13z"/>
<path d="M2802 1090 c0 -19 2 -27 5 -17 2 9 2 25 0 35 -3 9 -5 1 -5 -18z"/>
<path d="M5840 1110 c-20 -6 -21 -8 -5 -8 11 0 34 4 50 8 27 7 27 8 5 8 -14 0
-36 -4 -50 -8z"/>
<path d="M5778 1093 c6 -2 18 -2 25 0 6 3 1 5 -13 5 -14 0 -19 -2 -12 -5z"/>
<path d="M5738 1083 c7 -3 16 -2 19 1 4 3 -2 6 -13 5 -11 0 -14 -3 -6 -6z"/>
<path d="M2554 1033 c-21 -26 -33 -44 -27 -40 14 9 77 87 70 87 -3 0 -22 -21
-43 -47z"/>
<path d="M5645 1065 c-54 -17 -33 -18 30 -1 28 8 41 14 30 14 -11 0 -38 -5
-60 -13z"/>
<path d="M1152 1040 c0 -14 2 -19 5 -12 2 6 2 18 0 25 -3 6 -5 1 -5 -13z"/>
<path d="M1989 1033 c-13 -16 -12 -17 4 -4 16 13 21 21 13 21 -2 0 -10 -8 -17
-17z"/>
<path d="M2812 1025 c0 -16 2 -22 5 -12 2 9 2 23 0 30 -3 6 -5 -1 -5 -18z"/>
<path d="M5535 1035 c-39 -14 -40 -14 -5 -8 41 7 82 22 60 22 -8 0 -33 -7 -55
-14z"/>
<path d="M3631 1035 c0 -5 8 -26 19 -45 11 -19 19 -30 19 -25 0 6 -8 26 -19
45 -11 19 -19 31 -19 25z"/>
<path d="M1920 979 l-45 -41 42 32 c37 27 61 51 51 50 -2 0 -23 -19 -48 -41z"/>
<path d="M5445 1010 c-13 -5 -14 -9 -5 -9 8 0 24 4 35 9 13 5 14 9 5 9 -8 0
-24 -4 -35 -9z"/>
<path d="M1162 990 c0 -14 2 -19 5 -12 2 6 2 18 0 25 -3 6 -5 1 -5 -13z"/>
<path d="M6995 999 c-143 -14 -371 -55 -542 -99 -210 -54 -822 -264 -809 -277
2 -3 53 15 112 38 136 52 524 185 579 198 22 5 93 23 157 40 172 45 358 76
517 87 87 7 94 6 88 -10 -4 -10 -7 -19 -7 -22 0 -2 -7 -1 -15 2 -8 4 -15 1
-15 -5 0 -6 -7 -11 -15 -11 -8 0 -15 -7 -15 -15 0 -8 -6 -15 -13 -15 -7 0 -17
-8 -24 -18 -7 -12 -21 -18 -42 -16 -17 1 -31 -2 -31 -6 0 -11 -57 -30 -66 -22
-4 4 -4 2 -1 -4 4 -7 1 -17 -7 -23 -11 -9 -15 -9 -18 0 -3 8 -9 7 -20 -5 -12
-12 -18 -13 -21 -3 -4 9 -6 9 -6 -1 -1 -7 -5 -11 -11 -7 -5 3 -18 -3 -29 -14
-11 -11 -22 -17 -25 -13 -3 3 -6 1 -6 -5 0 -6 -11 -13 -25 -15 -14 -3 -25 -1
-25 4 0 5 -9 0 -20 -10 -14 -13 -30 -17 -47 -14 -18 3 -24 1 -19 -7 5 -7 0
-11 -13 -11 -12 0 -21 -6 -21 -12 0 -10 -2 -10 -8 0 -7 10 -14 10 -35 -1 -15
-8 -37 -14 -50 -13 -12 1 -25 -2 -28 -7 -3 -4 -30 -9 -61 -10 -36 -1 -55 -6
-55 -14 0 -10 4 -10 16 0 14 11 14 10 2 -5 -9 -13 -21 -16 -39 -11 -20 5 -23
3 -17 -8 7 -11 5 -11 -10 1 -17 13 -18 13 -13 -1 5 -14 0 -16 -28 -14 -19 1
-34 -2 -34 -7 0 -4 -9 -8 -20 -8 -12 0 -33 -8 -47 -17 -15 -10 -24 -13 -20 -6
5 8 -2 7 -20 -2 -15 -8 -36 -15 -45 -15 -9 0 -25 -11 -36 -24 -12 -15 -23 -21
-31 -16 -8 4 -31 -2 -58 -16 -24 -13 -54 -24 -67 -24 -13 0 -35 -11 -50 -25
-14 -13 -26 -19 -26 -12 0 8 -3 8 -9 -1 -4 -7 -23 -14 -40 -14 -20 -1 -37 -8
-44 -19 -6 -9 -17 -15 -24 -12 -7 3 -21 2 -30 -3 -10 -4 -20 -8 -23 -9 -3 -1
-18 -8 -35 -15 -16 -7 -33 -13 -37 -12 -4 1 -19 -5 -34 -13 -22 -11 -30 -12
-36 -2 -6 9 -8 9 -8 -2 0 -8 -6 -11 -16 -7 -8 3 -12 2 -9 -4 3 -6 1 -10 -4
-10 -21 0 -26 -2 -41 -14 -17 -14 -29 -14 -49 -2 -10 6 -12 6 -7 -3 5 -7 0
-18 -10 -26 -14 -10 -21 -10 -26 -2 -5 8 -8 7 -8 -4 0 -19 -34 -31 -47 -18 -6
6 -19 2 -34 -9 -13 -10 -34 -17 -46 -16 -13 1 -23 -3 -23 -8 0 -6 -7 -8 -15
-4 -8 3 -15 1 -15 -4 0 -5 -13 -8 -30 -6 -16 2 -31 -2 -34 -8 -3 -7 -5 -7 -5
2 -1 6 -6 12 -11 12 -6 0 -9 -6 -8 -12 2 -8 -6 -12 -20 -10 -12 2 -29 -4 -38
-13 -10 -10 -27 -14 -46 -11 -19 3 -31 0 -35 -10 -3 -8 -9 -11 -14 -8 -5 3 -9
1 -9 -4 0 -6 -15 -10 -32 -11 -47 -1 -67 -6 -80 -19 -18 -18 -41 -15 -34 4 4
10 -6 6 -26 -11 -18 -15 -39 -24 -50 -22 -10 3 -18 1 -18 -5 0 -5 -5 -6 -11
-3 -6 4 -16 -1 -23 -11 -10 -13 -15 -14 -21 -4 -6 9 -4 11 5 5 9 -6 11 -4 5 5
-6 10 -11 9 -22 -5 -9 -14 -13 -15 -13 -4 0 9 -3 10 -8 3 -4 -6 -15 -10 -25
-8 -9 1 -15 -2 -12 -6 3 -5 -4 -8 -15 -7 -11 1 -20 5 -20 9 0 5 -13 -1 -29
-13 -21 -15 -37 -20 -55 -15 -14 3 -28 1 -31 -5 -4 -6 -18 -8 -32 -4 -17 4
-23 2 -18 -6 5 -8 -3 -10 -29 -6 -20 3 -33 1 -30 -4 3 -5 637 -9 1495 -9
l1489 0 0 505 0 505 -57 -1 c-32 -1 -98 -6 -148 -10z m185 -3 c0 -2 -15 -6
-34 -8 -19 -2 -32 0 -30 4 5 8 64 12 64 4z"/>
<path d="M2822 965 c0 -16 2 -22 5 -12 2 9 2 23 0 30 -3 6 -5 -1 -5 -18z"/>
<path d="M5250 950 c-63 -21 -110 -38 -105 -39 6 0 64 17 130 38 66 21 113 39
105 39 -8 0 -67 -17 -130 -38z"/>
<path d="M2381 837 c-74 -78 -109 -117 -77 -87 59 56 221 230 215 230 -2 0
-64 -64 -138 -143z"/>
<path d="M1176 940 c15 -58 68 -131 108 -151 11 -6 4 3 -16 20 -21 18 -51 60
-68 94 -17 34 -28 51 -24 37z"/>
<path d="M3699 910 c16 -25 51 -65 77 -90 l48 -45 -54 60 c-30 33 -65 74 -78
90 -13 17 -10 10 7 -15z"/>
<path d="M1811 905 c-66 -42 -80 -56 -26 -26 40 22 94 61 85 61 -3 0 -29 -16
-59 -35z"/>
<path d="M2831 920 c0 -8 4 -24 9 -35 5 -13 9 -14 9 -5 0 8 -4 24 -9 35 -5 13
-9 14 -9 5z"/>
<path d="M4960 860 c-80 -27 -138 -49 -130 -49 8 0 80 22 160 49 80 26 138 48
130 48 -8 0 -80 -22 -160 -48z"/>
<path d="M6965 890 c4 -6 11 -8 16 -5 14 9 11 15 -7 15 -8 0 -12 -5 -9 -10z"/>
<path d="M1690 835 c-25 -13 -41 -24 -37 -25 11 0 87 39 87 45 0 7 0 7 -50
-20z"/>
<path d="M2861 820 c0 -8 4 -22 9 -30 12 -18 12 -2 0 25 -6 13 -9 15 -9 5z"/>
<path d="M0 410 l0 -410 1828 0 c1251 1 1821 4 1809 11 -9 5 -21 8 -26 4 -5
-3 -13 0 -17 6 -5 8 -3 9 6 4 9 -6 11 -4 5 4 -4 8 -20 11 -36 9 -16 -3 -29 0
-29 5 0 5 -12 6 -26 3 -17 -5 -23 -3 -19 4 6 10 -11 14 -54 10 -13 -1 -21 3
-17 8 3 5 -1 12 -9 15 -9 4 -12 1 -8 -9 3 -10 0 -12 -10 -8 -9 3 -18 13 -22
22 -5 14 -7 14 -15 2 -8 -13 -11 -13 -22 -1 -11 11 -11 13 1 6 10 -6 12 -4 7
4 -6 9 -11 9 -22 0 -11 -9 -14 -8 -14 5 0 11 -9 16 -28 16 -15 0 -33 5 -39 11
-6 6 -28 13 -49 15 -22 2 -40 8 -42 14 -3 8 -8 7 -18 -1 -11 -9 -15 -8 -20 4
-3 9 -14 14 -24 12 -12 -2 -21 3 -25 16 -7 21 -25 26 -25 7 0 -9 -3 -9 -9 1
-10 15 -75 41 -103 41 -10 0 -18 6 -18 14 0 16 -27 29 -42 19 -7 -3 -8 -1 -4
6 9 15 -12 43 -26 35 -6 -4 -14 -1 -18 7 -10 14 -50 20 -50 7 0 -5 -5 -6 -10
-3 -6 4 -8 10 -5 15 3 5 -4 12 -16 15 -17 6 -19 9 -8 17 10 6 4 7 -19 4 -21
-3 -30 -1 -26 6 5 7 -2 9 -20 4 -22 -5 -28 -2 -36 16 -5 13 -9 17 -9 10 -1
-14 -22 -12 -33 3 -5 6 -8 5 -8 -4 0 -7 -6 -11 -15 -8 -8 4 -17 1 -21 -5 -5
-7 -2 -8 7 -3 8 5 11 4 6 0 -4 -5 -16 -9 -27 -10 -15 -1 -17 1 -9 12 14 16 -3
17 -19 1 -7 -7 -25 -13 -40 -14 -42 -2 -44 -3 -36 -17 6 -9 4 -9 -7 0 -18 18
-49 16 -49 -2 0 -8 -4 -15 -10 -15 -5 0 -10 5 -10 10 0 6 -5 10 -10 10 -6 0
-9 -5 -8 -11 2 -6 -14 -17 -34 -25 -23 -8 -38 -9 -38 -3 0 6 -5 7 -10 4 -6 -4
-8 -11 -5 -16 9 -13 -9 -11 -23 3 -9 9 -15 9 -24 0 -10 -10 -10 -15 1 -21 9
-6 6 -10 -13 -15 -17 -4 -24 -11 -20 -19 4 -7 4 -9 -1 -5 -4 4 -15 2 -23 -5
-13 -10 -14 -9 -8 2 7 10 4 10 -15 -1 -13 -8 -34 -14 -46 -13 -12 1 -20 -2
-17 -6 3 -5 -3 -12 -13 -15 -10 -3 -26 -10 -37 -15 -12 -7 -16 -7 -12 0 4 7 1
8 -8 5 -9 -3 -16 -11 -16 -16 0 -6 -6 -8 -14 -5 -8 3 -34 -5 -59 -19 -46 -24
-73 -32 -115 -33 -16 -1 -21 -5 -16 -13 4 -7 4 -10 -1 -6 -4 4 -15 2 -23 -5
-13 -9 -14 -9 -8 1 4 6 2 12 -3 12 -6 0 -11 -5 -11 -11 0 -5 -4 -7 -10 -4 -5
3 -10 2 -10 -3 0 -5 -10 -13 -22 -17 -24 -7 -28 -8 -93 -19 -22 -3 -45 -13
-51 -22 -9 -10 -13 -11 -16 -3 -3 9 -13 9 -42 -1 -33 -11 -96 -18 -196 -22
-14 0 -34 3 -44 7 -12 5 -17 5 -13 -2 4 -5 -6 -10 -23 -10 -16 0 -28 3 -26 6
2 3 -9 7 -25 8 -15 1 -32 -3 -35 -9 -5 -8 -10 -5 -15 8 -7 17 -8 17 -8 1 -1
-15 -4 -16 -22 -7 -15 9 -24 8 -37 -2 -11 -9 -14 -10 -8 0 7 11 -16 17 -51 13
-8 -1 -10 5 -7 16 4 13 3 15 -4 5 -8 -11 -23 -12 -88 -2 -44 7 -93 13 -111 14
-17 0 -34 4 -38 8 -4 4 -13 4 -20 2 -7 -3 -15 2 -19 11 -4 13 -10 14 -26 5
-16 -9 -22 -8 -26 5 -4 9 -12 14 -19 11 -8 -3 -16 2 -19 10 -3 8 -9 14 -13 13
-28 -5 -53 2 -47 13 5 8 0 9 -14 6 -12 -4 -20 -2 -16 3 3 5 -4 9 -16 9 -12 0
-18 5 -15 10 3 6 1 10 -4 10 -6 0 -11 -6 -11 -12 0 -7 -7 -3 -15 9 -8 11 -26
24 -40 27 -14 4 -23 11 -20 16 3 5 -6 12 -20 16 -14 3 -25 12 -25 20 0 8 -6
14 -14 14 -7 0 -24 15 -37 34 -13 19 -26 33 -30 31 -6 -4 -32 18 -59 51 -17
20 -20 28 -20 45 0 5 -4 7 -10 4 -5 -3 -11 -1 -11 4 -1 6 -2 15 -3 20 0 5 -12
19 -25 30 -13 12 -21 21 -16 21 4 0 1 7 -6 17 -8 9 -13 24 -11 34 2 10 -6 23
-18 29 -11 6 -18 15 -15 19 2 5 -5 21 -16 35 -12 15 -19 35 -16 46 3 10 1 20
-4 22 -4 2 -9 24 -11 50 -2 27 -6 48 -10 48 -5 0 -8 -184 -8 -410z m2857 -116
c-3 -3 -12 -4 -19 -1 -8 3 -5 6 6 6 11 1 17 -2 13 -5z"/>
<path d="M4765 800 c-13 -5 -14 -9 -5 -9 8 0 24 4 35 9 13 5 14 9 5 9 -8 0
-24 -4 -35 -9z"/>
<path d="M1590 790 c-8 -5 -10 -10 -5 -10 6 0 17 5 25 10 8 5 11 10 5 10 -5 0
-17 -5 -25 -10z"/>
<path d="M4625 763 c-49 -13 -137 -32 -195 -43 -58 -10 -92 -19 -76 -19 37 -1
260 45 334 69 81 26 43 22 -63 -7z"/>
<path d="M155 761 c12 -39 35 -91 40 -91 5 0 -34 102 -42 110 -3 3 -2 -6 2
-19z"/>
<path d="M1335 766 c19 -10 57 -15 100 -14 l70 1 -80 7 c-44 4 -89 10 -100 14
-11 3 -6 0 10 -8z"/>
<path d="M1525 770 c-13 -5 -14 -9 -5 -9 8 0 24 4 35 9 13 5 14 9 5 9 -8 0
-24 -4 -35 -9z"/>
<path d="M2880 767 c0 -16 64 -135 105 -192 47 -66 173 -190 223 -218 45 -25
40 -14 -5 14 -51 31 -157 133 -201 194 -21 27 -56 86 -79 130 -23 44 -43 76
-43 72z"/>
<path d="M3884 746 c11 -9 24 -16 30 -16 12 0 7 5 -24 19 -24 11 -24 11 -6 -3z"/>
<path d="M3980 710 c34 -11 60 -11 35 0 -11 5 -29 8 -40 8 -16 0 -15 -2 5 -8z"/>
<path d="M2170 638 c-51 -47 -54 -52 -15 -20 47 37 93 83 84 82 -2 -1 -33 -28
-69 -62z"/>
<path d="M4123 693 c37 -2 97 -2 135 0 37 2 6 3 -68 3 -74 0 -105 -1 -67 -3z"/>
<path d="M225 611 c30 -55 139 -179 188 -213 18 -12 -7 16 -54 62 -47 47 -101
111 -119 143 -17 31 -34 57 -37 57 -2 0 8 -22 22 -49z"/>
<path d="M5600 610 c-8 -5 -10 -10 -5 -10 6 0 17 5 25 10 8 5 11 10 5 10 -5 0
-17 -5 -25 -10z"/>
<path d="M5497 573 c-37 -14 -66 -28 -63 -30 4 -4 136 44 145 52 9 10 -15 3
-82 -22z"/>
<path d="M2085 570 c-4 -6 -59 -45 -124 -88 -157 -102 -164 -108 -106 -76 97
52 266 174 242 174 -3 0 -9 -5 -12 -10z"/>
<path d="M5375 525 c-25 -12 -26 -14 -5 -9 28 7 60 23 45 23 -5 0 -23 -6 -40
-14z"/>
<path d="M5282 493 c-24 -8 -41 -17 -39 -19 4 -5 97 26 97 32 0 6 -11 4 -58
-13z"/>
<path d="M5125 435 c-33 -13 -55 -24 -50 -24 10 -1 117 38 124 45 10 9 -17 2
-74 -21z"/>
<path d="M4927 373 c-59 -20 -106 -38 -103 -40 2 -2 57 14 122 36 66 21 112
39 104 39 -8 0 -63 -16 -123 -35z"/>
<path d="M458 367 c16 -19 190 -107 212 -107 8 0 -19 15 -60 33 -41 18 -95 46
-120 62 -25 15 -39 21 -32 12z"/>
<path d="M1720 345 c-14 -8 -20 -14 -15 -14 6 0 21 6 35 14 14 8 21 14 15 14
-5 0 -21 -6 -35 -14z"/>
<path d="M3250 336 c0 -3 9 -10 20 -16 11 -6 20 -8 20 -6 0 3 -9 10 -20 16
-11 6 -20 8 -20 6z"/>
<path d="M1650 315 c-14 -8 -20 -14 -15 -14 6 0 21 6 35 14 14 8 21 14 15 14
-5 0 -21 -6 -35 -14z"/>
<path d="M4788 323 c7 -3 16 -2 19 1 4 3 -2 6 -13 5 -11 0 -14 -3 -6 -6z"/>
<path d="M3310 301 c20 -14 166 -71 182 -71 7 1 -25 16 -72 34 -128 50 -127
50 -110 37z"/>
<path d="M4680 298 c-19 -5 -98 -25 -175 -43 -77 -19 -132 -34 -121 -34 22 -1
356 79 356 85 0 6 -21 3 -60 -8z"/>
<path d="M1510 265 c-19 -7 -28 -14 -20 -14 8 0 29 6 45 14 39 17 21 18 -25 0z"/>
<path d="M705 250 c27 -12 43 -12 25 0 -8 5 -22 9 -30 9 -10 0 -8 -3 5 -9z"/>
<path d="M1438 243 c6 -2 18 -2 25 0 6 3 1 5 -13 5 -14 0 -19 -2 -12 -5z"/>
<path d="M770 230 c14 -4 36 -8 50 -8 22 0 22 1 -5 8 -16 4 -39 8 -50 8 -16 0
-15 -2 5 -8z"/>
<path d="M1398 233 c7 -3 16 -2 19 1 4 3 -2 6 -13 5 -11 0 -14 -3 -6 -6z"/>
<path d="M1343 223 c9 -2 23 -2 30 0 6 3 -1 5 -18 5 -16 0 -22 -2 -12 -5z"/>
<path d="M3518 223 c7 -3 16 -2 19 1 4 3 -2 6 -13 5 -11 0 -14 -3 -6 -6z"/>
<path d="M863 213 c9 -2 23 -2 30 0 6 3 -1 5 -18 5 -16 0 -22 -2 -12 -5z"/>
<path d="M1273 213 c9 -2 23 -2 30 0 6 3 -1 5 -18 5 -16 0 -22 -2 -12 -5z"/>
<path d="M3570 210 c14 -4 34 -8 45 -8 16 0 15 2 -5 8 -14 4 -34 8 -45 8 -16
0 -15 -2 5 -8z"/>
<path d="M4230 203 c-47 -7 -164 -17 -260 -22 -161 -7 -166 -8 -64 -9 120 -2
291 12 394 33 86 17 38 16 -70 -2z"/>
<path d="M948 203 c23 -2 59 -2 80 0 20 2 1 4 -43 4 -44 0 -61 -2 -37 -4z"/>
<path d="M1090 200 c-20 -6 -21 -8 -5 -8 11 0 29 3 40 8 25 11 -1 11 -35 0z"/>
<path d="M1183 203 c15 -2 37 -2 50 0 12 2 0 4 -28 4 -27 0 -38 -2 -22 -4z"/>
<path d="M3675 190 c40 -9 112 -13 104 -6 -2 2 -35 6 -74 9 -54 4 -61 4 -30
-3z"/>
<path d="M640 109 c0 -5 5 -7 10 -4 6 3 10 8 10 11 0 2 -4 4 -10 4 -5 0 -10
-5 -10 -11z"/>
</g>
</svg>
